<svg version="1.1" xmlns="http://www.w3.org/2000/svg" xmlns:xlink="http://www.w3.org/1999/xlink" width="66.41665649414062" height="27.899993896484375"><defs></defs><g transform="translate(-35.55000305175781,16.133331298828125)"><rect fill="rgb(255,255,255)" stroke="none" x="0" y="0" width="66.41665649414062" height="27.899993896484375" fill-opacity="0" transform="translate(35.55000305175781,-16.133331298828125)"></rect><g transform="translate(34.05833333333333,15) rotate(0,0,0) translate(-34.05833333333333,-15) matrix(1,0,0,1,34.05833333333333,15)"><path fill="rgb(0,0,0)" fill-opacity="1" d="M16.51-21.96L16.51-21.96Q16.51-21.73 16.37-21.59L16.37-21.59Q13.70-19.98 10.46-16.51Q7.22-13.03 5.56-8.53L5.56-8.53Q5.01-6.32 4.41-6.32L4.41-6.32Q3.03-6.32 3.03-6.96L3.03-6.96Q3.72-14.37 3.72-15.70L3.72-15.70Q3.72-19.52 2.57-19.57L2.57-19.57Q2.48-19.52 2.27-19.15Q2.07-18.78 1.93-18.78L1.93-18.78Q1.51-18.78 1.51-19.43L1.51-19.43Q1.51-20.35 3.03-20.35L3.03-20.35Q5.93-20.35 5.93-15.24L5.93-15.24Q5.93-14.78 5.61-12.25L5.61-12.25Q5.61-12.07 5.79-12.07L5.79-12.07Q5.88-12.07 6.11-12.44L6.11-12.44Q9.38-16.99 12.02-19.73Q14.67-22.46 15.96-22.46L15.96-22.46Q16.51-22.46 16.51-21.96ZM21.39-27.34L21.39-27.34Q21.48-27.34 21.48-27.11L21.48-27.11L21.25-25.78Q20.56-22.92 19.13-22.92L19.13-22.92Q18.07-22.92 17.48-23.48L17.48-23.48Q19.22-24.67 21.39-27.34ZM18.99-19.80Q17.57-17.36 16.28-13.61Q14.99-9.86 14.99-8.43Q14.99-7.01 15.59-7.01L15.59-7.01Q16.00-7.01 16.65-7.51Q17.29-8.02 17.43-8.16Q17.57-8.30 17.75-8.43L17.75-8.43Q17.94-8.43 17.94-8.25L17.94-8.25Q17.94-7.70 16.62-6.94Q15.31-6.18 14.72-6.18L14.72-6.18Q12.97-6.18 12.97-8.71L12.97-8.71Q12.97-12.48 15.73-18.78L15.73-18.78Q15.73-18.97 15.98-19.47Q16.23-19.98 16.37-20.12L16.37-20.12Q16.69-20.44 17.25-20.44L17.25-20.44Q18.86-20.44 18.99-19.80L18.99-19.80ZM26.26-30.47L26.26-30.47L24.70-30.15Q24.38-30.15 24.38-30.42L24.38-30.42Q24.38-31.11 26.15-31.11Q27.92-31.11 28.79-30.47Q29.67-29.82 29.67-28.95Q29.67-28.08 26.08-19.93L26.08-19.93Q22.21-11.47 21.62-9.68L21.62-9.68Q21.80-10.09 24.79-14L24.79-14L23.87-14.78Q23.87-15.10 24.54-15.89Q25.20-16.67 25.41-16.67Q25.62-16.67 26.45-16.07L26.45-16.07Q28.56-18.46 30.84-20.32Q33.12-22.19 34.08-22.19L34.08-22.19Q34.54-22.19 34.54-21.18L34.54-21.18Q34.54-18.74 32.66-16.62Q30.77-14.51 28.33-14L28.33-14Q30.17-11.01 30.17-7.47L30.17-7.47Q30.17-6.09 29.87-4.66Q29.57-3.24 29.18-3.24Q28.79-3.24 28.79-3.56L28.79-3.56L29.02-5.40Q29.02-9.45 25.30-13.40L25.30-13.40Q21.75-8.39 21.25-7.10L21.25-7.10Q21.39-6.96 21.39-6.82L21.39-6.82Q21.39-6.41 20.83-6.41L20.83-6.41Q20.05-6.41 20.05-7.77Q20.05-9.12 20.83-11.88L20.83-11.88L24.38-20.76Q27.14-27.94 27.14-29.20Q27.14-30.47 26.26-30.47ZM32.01-20.16L32.01-20.16Q32.01-20.30 31.94-20.30Q31.87-20.30 29.55-18.12Q27.23-15.93 27.00-15.61L27.00-15.61Q27.18-15.20 28.15-15.20Q29.11-15.20 30.56-17.01Q32.01-18.83 32.01-20.16ZM44.48-6.92L44.48-6.92L44.94-7.01L45.03-6.96Q45.03-6.55 43.90-6.55Q42.78-6.55 42.06-7.56Q41.35-8.57 41.35-10.30Q41.35-12.02 41.99-14.23L41.99-14.23Q41.99-14.09 40.75-12.34L40.75-12.34Q36.98-6.50 34.82-6.50L34.82-6.50Q33.90-6.50 33.14-7.35Q32.38-8.20 32.38-9.56Q32.38-10.92 34.01-13.70Q35.65-16.48 37.95-18.65Q40.25-20.81 41.90-20.81L41.90-20.81L42.36-20.81Q44.06-20.81 45.26-20.14Q46.46-19.47 46.46-18.37L46.46-18.37Q46.46-17.86 46.04-17.86L46.04-17.86Q45.90-17.86 45.90-18.00L45.90-18.00Q45.12-19.70 43.65-19.70L43.65-19.70Q41.07-19.70 37.69-15.40Q34.31-11.10 34.31-8.85L34.31-8.85Q34.31-7.97 34.77-7.97L34.77-7.97Q36.84-7.97 43.47-17.31L43.47-17.31Q43.56-17.40 43.76-17.40Q43.97-17.40 44.71-16.97Q45.44-16.53 45.44-16.21L45.44-16.21Q45.44-16.21 44.80-15.01L44.80-15.01Q43.28-11.79 43.28-9.35Q43.28-6.92 44.48-6.92ZM54.18-21.50Q54.51-21.50 55.47-20.53Q56.44-19.57 56.44-19.31Q56.44-19.06 56.21-19.06L56.21-19.06Q55.20-19.29 54.92-19.29L54.92-19.29Q52.85-19.29 50.66-17.77Q48.48-16.25 48.48-14.69L48.48-14.69Q48.48-14.37 50.64-11.91Q52.80-9.45 52.80-8.55Q52.80-7.65 51.52-6.73Q50.23-5.81 48.92-5.81Q47.61-5.81 46.69-6.20Q45.77-6.59 45.77-7.01L45.77-7.01Q51.06-8.11 51.06-9.68L51.06-9.68Q51.06-10.00 49.81-11.10L49.81-11.10Q47.42-13.22 47.42-15.84L47.42-15.84Q47.42-17.68 49.79-19.59Q52.16-21.50 54.18-21.50L54.18-21.50ZM62.46-30.47L62.46-30.47L60.85-30.15Q60.62-30.15 60.62-30.42L60.62-30.42Q60.62-31.11 62.39-31.11Q64.17-31.11 65.02-30.47Q65.87-29.82 65.87-28.84Q65.87-27.85 63.80-23.61L63.80-23.61L61.08-18.05L58.37-11.79Q60.26-13.45 62.12-15.68Q63.98-17.91 64.92-19.27Q65.87-20.62 66.01-20.62L66.01-20.62L66.24-20.62Q67.89-20.62 67.89-19.98L67.89-19.98Q67.89-20.16 67.66-19.75L67.66-19.75Q66.37-17.40 65.36-14.09Q64.35-10.78 64.35-9.77L64.35-9.77Q64.35-6.96 65.32-6.96L65.32-6.96Q65.64-6.96 66.65-7.84L66.65-7.84Q66.79-7.84 66.79-7.47L66.79-7.47Q66.79-6.27 65.48-6.27Q64.17-6.27 63.34-7.61Q62.51-8.94 62.51-10.73Q62.51-12.53 63.38-14.92L63.38-14.92Q60.39-11.88 57.68-9.81L57.68-9.81Q56.76-7.28 56.76-6.27L56.76-6.27L56.76-6.04Q57.17-5.77 57.17-5.58L57.17-5.58Q57.17-5.17 56.62-5.17L56.62-5.17Q56.35-5.17 56.12-5.40L56.12-5.40Q53.68-7.93 53.68-8.20Q53.68-8.48 53.95-8.48L53.95-8.48L54.05-8.48Q55.29-9.22 56.12-9.86L56.12-9.86Q57.04-13.36 58.88-17.59L58.88-17.59L61.50-23.61Q63.25-27.62 63.34-29.46L63.34-29.46Q63.34-30.47 62.46-30.47ZM55.75-6.59L55.75-6.59Q55.70-6.82 55.70-7.26Q55.70-7.70 55.84-8.53L55.84-8.53Q54.78-7.97 54.60-7.93L54.60-7.93Q55.01-7.24 55.75-6.59Z"></path></g></g></svg>